#!OML:ASF X:\für Bonn\!DataBase\2005_08_12_Daniel\c3d\Daniel.ASF
:FULLY-SPECIFIED
:DEGREES
2296
root -3.55758 17.3157 -0.699133 364.632 -76.9681 -393.031
lowerback 48.1265 -16.0358 -9.87538
upperback 15.3863 -27.0005 -3.01485
thorax -0.533042 -15.0611 10.8323
lowerneck 4.91792 12.7299 -2.51806
upperneck 12.8985 16.2988 -1.21011
head 3.25532 7.60052 0.199317
rclavicle -5.24792e-014 1.59028e-014
rhumerus -56.081 4.97614 -72.2842
rradius 58.0912
rwrist 0.0891448
rhand -29.5522 41.7429
rfingers 7.12502
rthumb -2.88497 11.7827
lclavicle -5.24792e-014 1.59028e-014
lhumerus 46.3956 3.77494 78.6571
lradius 133.66
lwrist 50.1883
lhand -3.22676 -13.4402
lfingers 7.12502
lthumb 22.4963 15.2694
rfemur -83.0246 -22.3364 26.0421
rtibia 123.206
rfoot 3.59078 14.1827
rtoes -12.0241
lfemur 14.1239 -8.61398 -20.3629
ltibia 28.9507
lfoot -15.814 -2.22849
ltoes 8.12963
2297
root -3.56179 17.3098 -0.691802 365.247 -77.2433 -393.14
lowerback 47.3285 -16.0026 -9.71276
upperback 15.171 -26.7704 -2.90108
thorax -0.639439 -14.893 10.7498
lowerneck 5.02703 12.6006 -2.62061
upperneck 13.0918 16.111 -1.26286
head 3.3001 7.4888 0.195992
rclavicle 6.04305e-014 -3.18055e-014
rhumerus -55.536 5.02673 -72.2661
rradius 59.2365
rwrist 0.147976
rhand -29.5785 41.3522
rfingers 7.12502
rthumb -2.91045 11.3923
lclavicle 6.04305e-014 -3.18055e-014
lhumerus 45.9135 3.64026 78.0662
lradius 133.576
lwrist 49.8269
lhand -3.42263 -13.5061
lfingers 7.12502
lthumb 22.3083 15.2262
rfemur -81.2712 -22.4239 25.1955
rtibia 122.359
rfoot 3.68305 14.1527
rtoes -11.6111
lfemur 13.4293 -8.67228 -20.4611
ltibia 29.3938
lfoot -16.1937 -2.07575
ltoes 8.07788
2298
root -3.56609 17.3064 -0.684976 365.755 -77.522 -393.128
lowerback 46.53 -15.9488 -9.57829
upperback 14.9303 -26.5276 -2.76221
thorax -0.749447 -14.7195 10.6983
lowerneck 5.09137 12.4628 -2.74869
upperneck 13.3073 15.9149 -1.31484
head 3.3585 7.37075 0.200384
rclavicle -4.6118e-014 -8.74653e-014
rhumerus -54.9919 5.15707 -72.2974
rradius 60.4274
rwrist 0.194715
rhand -29.6513 40.856
rfingers 7.12502
rthumb -2.98073 10.8971
lclavicle -4.6118e-014 -8.74653e-014
lhumerus 45.3546 3.43521 77.6122
lradius 133.504
lwrist 49.3669
lhand -3.6591 -13.5519
lfingers 7.12502
lthumb 22.0813 15.2074
rfemur -79.4731 -22.496 24.2601
rtibia 121.482
rfoot 3.80522 14.0016
rtoes -11.1006
lfemur 12.742 -8.76545 -20.6092
ltibia 29.807
lfoot -16.5838 -1.85003
ltoes 8.03074
2299
root -3.57199 17.3025 -0.678886 366.312 -77.8067 -393.165
lowerback 45.7366 -15.8986 -9.43947
upperback 14.6644 -26.2878 -2.61825
thorax -0.881619 -14.5431 10.6551
lowerneck 5.15653 12.3389 -2.93919
upperneck 13.5604 15.7296 -1.32866
head 3.42148 7.25342 0.226468
rclavicle 5.96354e-014 6.52014e-014
rhumerus -54.4161 5.42082 -72.3796
rradius 61.5632
rwrist 0.217048
rhand -29.831 40.3004
rfingers 7.12502
rthumb -3.15423 10.3439
lclavicle 5.96354e-014 6.52014e-014
lhumerus 44.7566 3.1751 77.2696
lradius 133.449
lwrist 48.8693
lhand -3.90734 -13.473
lfingers 7.12502
lthumb 21.8429 15.3142
rfemur -77.616 -22.488 23.3364
rtibia 120.545
rfoot 3.99339 13.6413
rtoes -10.6332
lfemur 12.0929 -8.85489 -20.7406
ltibia 30.1547
lfoot -16.9613 -1.65141
ltoes 8.02934
2300
root -3.57922 17.3003 -0.674058 366.848 -78.0965 -393.193
lowerback 44.9489 -15.8303 -9.31303
upperback 14.3916 -26.0338 -2.47803
thorax -1.01698 -14.3596 10.6086
lowerneck 5.20733 12.2134 -3.06314
upperneck 13.8459 15.5471 -1.37137
head 3.50761 7.13754 0.236757
rclavicle -1.22451e-013 -1.90833e-014
rhumerus -53.8211 5.72452 -72.516
rradius 62.6439
rwrist 0.234105
rhand -30.039 39.8049
rfingers 7.12502
rthumb -3.35513 9.85157
lclavicle -1.22451e-013 -1.90833e-014
lhumerus 44.1167 2.90191 77.0242
lradius 133.378
lwrist 48.433
lhand -4.03976 -13.3403
lfingers 7.12502
lthumb 21.7158 15.4617
rfemur -75.6568 -22.3754 22.4529
rtibia 119.511
rfoot 4.02016 13.1178
rtoes -10.9919
lfemur 11.4966 -8.94029 -20.8824
ltibia 30.4374
lfoot -17.3492 -1.4006
ltoes 8.00204
2301
root -3.58607 17.3019 -0.669398 367.483 -78.3665 -393.35
lowerback 44.149 -15.7551 -9.17231
upperback 14.1482 -25.7705 -2.34185
thorax -1.11756 -14.1788 10.5382
lowerneck 5.38467 12.0871 -3.17288
upperneck 14.0105 15.3579 -1.44556
head 3.53298 7.02378 0.222051
rclavicle 4.69132e-014 -1.59028e-014
rhumerus -53.1762 6.06232 -72.6959
rradius 63.6741
rwrist 0.186658
rhand -30.266 39.4516
rfingers 7.12502
rthumb -3.57438 9.50183
lclavicle 4.69132e-014 -1.59028e-014
lhumerus 43.5233 2.61122 76.8059
lradius 133.248
lwrist 48.0383
lhand -4.22036 -13.2638
lfingers 7.12502
lthumb 21.5423 15.5581
rfemur -73.5675 -22.1621 21.6332
rtibia 118.339
rfoot 3.90279 12.4733
rtoes -11.6366
lfemur 10.9624 -8.96012 -20.9774
ltibia 30.6485
lfoot -17.6878 -1.11283
ltoes 7.79224
2302
root -3.5941 17.3052 -0.665274 368.041 -78.6484 -393.422
lowerback 43.2913 -15.6616 -9.06036
upperback 13.9293 -25.4972 -2.21842
thorax -1.1656 -14.0012 10.4426
lowerneck 5.55744 11.9688 -3.28706
upperneck 14.1833 15.1766 -1.4927
head 3.55934 6.91412 0.217038
rclavicle 1.55052e-014 -1.74931e-013
rhumerus -52.4788 6.42946 -72.9222
rradius 64.6354
rwrist 0.178045
rhand -30.5963 39.1632
rfingers 7.12502
rthumb -3.89332 9.21907
lclavicle 1.55052e-014 -1.74931e-013
lhumerus 42.9529 2.32875 76.6555
lradius 133.087
lwrist 47.6729
lhand -4.34243 -13.2414
lfingers 7.12502
lthumb 21.4251 15.5939
rfemur -71.4411 -21.8593 20.8129
rtibia 117.067
rfoot 3.75172 11.7549
rtoes -11.9025
lfemur 10.4557 -8.98611 -21.1034
ltibia 30.8088
lfoot -18.0161 -0.807654
ltoes 7.54147
2303
root -3.60363 17.3094 -0.662608 368.696 -78.9513 -393.617
lowerback 42.4216 -15.5438 -8.96572
upperback 13.7453 -25.2076 -2.10524
thorax -1.16519 -13.8253 10.3255
lowerneck 5.71813 11.8546 -3.38112
upperneck 14.3459 15.0042 -1.55783
head 3.58775 6.80979 0.204275
rclavicle -3.45885e-014 1.41535e-013
rhumerus -51.7036 6.83485 -73.1845
rradius 65.5517
rwrist 0.0734845
rhand -30.8562 38.9849
rfingers 7.12502
rthumb -4.14424 9.04542
lclavicle -3.45885e-014 1.41535e-013
lhumerus 42.4096 2.08604 76.5162
lradius 132.9
lwrist 47.3719
lhand -4.4564 -13.3056
lfingers 7.12502
lthumb 21.3156 15.5421
rfemur -69.2709 -21.4429 20.0616
rtibia 115.691
rfoot 3.53397 10.91
rtoes -11.7544
lfemur 10.008 -9.02842 -21.22
ltibia 30.9285
lfoot -18.3367 -0.478218
ltoes 7.41395
2304
root -3.61336 17.312 -0.660736 369.272 -79.241 -393.723
lowerback 41.5144 -15.4322 -8.87076
upperback 13.5722 -24.924 -2.01356
thorax -1.14216 -13.6533 10.1773
lowerneck 5.94288 11.7398 -3.45986
upperneck 14.4682 14.8248 -1.61358
head 3.59092 6.70496 0.186605
rclavicle 7.43455e-014 -6.36111e-014
rhumerus -50.937 7.24574 -73.4862
rradius 66.4591
rwrist -0.0886329
rhand -31.0593 38.9593
rfingers 7.12502
rthumb -4.34036 9.02374
lclavicle 7.43455e-014 -6.36111e-014
lhumerus 41.8001 1.84019 76.4048
lradius 132.765
lwrist 47.138
lhand -4.60178 -13.4153
lfingers 7.12502
lthumb 21.176 15.4481
rfemur -67.1472 -21.0165 19.3326
rtibia 114.264
rfoot 3.3268 10.0359
rtoes -11.4735
lfemur 9.55179 -9.07532 -21.342
ltibia 31.0303
lfoot -18.6211 -0.157149
ltoes 7.29838
